<svg width="159" height="142" viewBox="0 0 159 142" fill="none" xmlns="http://www.w3.org/2000/svg">
  <path d="M164.838 129.183C164.627 130.23 164.194 131.221 163.567 132.086C162.941 132.952 162.136 133.673 161.207 134.202L90.0685 175.275C87.7667 176.603 85.1559 177.302 82.4983 177.302C79.8407 177.302 77.23 176.603 74.9282 175.275L3.78407 134.202C2.63671 133.536 1.68433 132.581 1.02228 131.432C0.360217 130.283 0.0117188 128.979 0.0117188 127.653C0.0117188 126.327 0.360217 125.024 1.02228 123.874C1.68433 122.725 2.63671 121.77 3.78407 121.105L74.9282 80.0317C77.2291 78.7008 79.8402 78 82.4983 78C85.1564 78 87.7676 78.7008 90.0685 80.0317L161.207 121.105C162.589 121.895 163.684 123.102 164.336 124.553C164.989 126.005 165.164 127.625 164.838 129.183Z" fill="white"/>
  <path d="M164.988 130.795C164.996 132.125 164.649 133.433 163.985 134.585C163.32 135.736 162.361 136.691 161.206 137.349L90.0617 178.427C87.7609 179.756 85.1509 180.455 82.4941 180.455C79.8373 180.455 77.2274 179.756 74.9265 178.427L3.78246 137.349C2.64983 136.707 1.70484 135.78 1.04132 134.66C0.377795 133.539 0.0188286 132.265 0 130.963V130.612C0.0126221 130.158 0.0651756 129.706 0.157128 129.26C0.365915 130.308 0.797756 131.299 1.4233 132.165C2.04884 133.031 2.85346 133.752 3.78246 134.279L74.9265 175.352C77.2274 176.681 79.8373 177.38 82.4941 177.38C85.1509 177.38 87.7609 176.681 90.0617 175.352L161.206 134.279C162.135 133.752 162.939 133.031 163.565 132.165C164.19 131.299 164.622 130.308 164.831 129.26C164.936 129.765 164.988 130.28 164.988 130.795Z" fill="#7A7E8C"/>
  <path opacity="0.5" d="M82 145.697C101.33 145.697 117 136.742 117 125.697C117 114.651 101.33 105.697 82 105.697C62.67 105.697 47 114.651 47 125.697C47 136.742 62.67 145.697 82 145.697Z" stroke="#7A7E8C" stroke-width="2" stroke-linecap="round" stroke-linejoin="round"/>
  <path d="M103.579 127.697C102.767 125.333 100.757 123.085 97.5583 121.261C88.9649 116.36 75.0298 116.36 66.4417 121.261C63.2589 123.085 61.2326 125.333 60.421 127.697C59.0418 123.724 61.0522 119.447 66.4417 116.376C75.0298 111.47 88.9649 111.47 97.5583 116.376C102.948 119.437 104.958 123.724 103.579 127.697Z" fill="#BDBFC6"/>
  <path d="M103 128.701C102.191 131.035 100.188 133.26 97.0014 135.064C88.4394 139.908 74.5553 139.908 65.9986 135.064C62.8275 133.26 60.8086 131.035 60 128.701C60.8086 126.363 62.8117 124.138 65.9986 122.333C74.5553 117.485 88.4394 117.485 97.0014 122.333C100.188 124.159 102.218 126.363 103 128.701Z" fill="white"/>
  <path d="M90.3834 62.6563C90.1353 62.7887 89.8551 62.8487 89.5746 62.8296C89.2646 62.7892 88.9626 62.7015 88.6791 62.5697L88.217 62.3675C87.8474 62.1413 87.5078 61.8696 87.206 61.5587L87.0327 61.3854C86.6631 61.0139 86.3428 60.5964 86.0795 60.1433L78.2516 46.9429C78.2516 46.6829 77.9628 46.4229 77.8472 46.163C77.5834 45.5677 77.4176 44.9337 77.3562 44.2854C77.2747 43.8735 77.3099 43.4469 77.4579 43.0539C77.6059 42.6609 77.8608 42.3171 78.1939 42.0613L63.8669 50.3513C63.5338 50.6071 63.2789 50.9509 63.1309 51.3439C62.9829 51.7369 62.9477 52.1635 63.0292 52.5754C63.0769 53.226 63.2433 53.8623 63.5202 54.453C63.5202 54.7129 63.7802 54.9729 63.9246 55.2329L71.7525 68.4333C71.9819 68.8272 72.2531 69.1952 72.5613 69.531V69.6754L72.7346 69.8487C73.0425 70.1528 73.3813 70.4239 73.7456 70.6575L74.0922 70.8308C74.3862 70.9851 74.7133 71.0658 75.0454 71.0658C75.3775 71.0658 75.7046 70.9851 75.9986 70.8308L92.0587 61.9631L106.299 53.6731L90.3834 62.6563Z" fill="white"/>
  <path d="M125.766 44.9787C125.766 44.7187 125.766 44.4587 125.766 44.1699C125.763 44.1025 125.763 44.035 125.766 43.9677C125.702 43.2954 125.586 42.6291 125.42 41.9746V41.6858C125.237 41.0469 125.015 40.4199 124.755 39.8082V39.5771C124.437 38.8543 124.061 38.1587 123.629 37.4974L123.369 37.093C122.94 36.4179 122.467 35.7714 121.954 35.1577L121.058 34.2045L93.4728 7.83247C92.762 7.08822 91.9672 6.42907 91.1043 5.86828L90.3821 5.49277H90.1799C89.6682 5.23722 89.124 5.05258 88.5624 4.94396L61.2949 0.0912687C60.3113 -0.118228 59.2852 0.0356949 58.4064 0.524545L44.166 8.75679C45.0476 8.27523 46.0745 8.13146 47.0545 8.3524L74.2065 13.1184C74.7636 13.23 75.3063 13.4044 75.8241 13.6384C76.1129 13.6384 76.4306 13.8983 76.7195 14.0716C77.6296 14.6168 78.473 15.2663 79.2325 16.0069L106.413 42.1768L107.367 43.2167C107.896 43.8246 108.379 44.4715 108.811 45.152L109.071 45.5275C109.475 46.2207 109.851 46.914 110.197 47.6361C110.233 47.7564 110.281 47.8726 110.342 47.9827C110.602 48.5893 110.804 49.2248 111.006 49.8313V50.1491C111.177 50.8025 111.293 51.4692 111.353 52.1422C111.353 52.4599 111.353 52.8065 111.353 53.1242V84.4934C111.353 93.9966 108.464 101.478 102.832 105.493C102.456 105.753 102.081 106.013 101.676 106.244L115.945 97.9539L117.072 97.2028C122.589 93.1878 125.737 85.6488 125.593 76.2323L125.766 44.9787Z" fill="#2027C9"/>
  <path d="M111.497 53.2399V84.6091C111.497 94.1123 108.609 101.594 102.976 105.609C100.023 107.556 96.5484 108.563 93.011 108.497L78.3663 109.046C77.8423 109.057 77.3278 108.905 76.8932 108.613C76.336 108.284 75.8381 107.864 75.42 107.371L60.7175 90.0395C56.8642 85.6018 53.5035 80.7594 50.6944 75.597C45.4021 66.2173 42.4216 55.7113 42 44.9499L42 13.6096C42 9.99898 44.022 7.8326 47.0549 8.46807L74.2068 13.2341C75.0924 13.4073 75.9422 13.7297 76.7199 14.1873C77.63 14.7324 78.4733 15.3819 79.2329 16.1226L106.414 42.2925C109.424 45.1733 111.239 49.0817 111.497 53.2399ZM92.1734 62.0788C93.3577 61.3855 93.3577 59.1903 92.1734 57.1683C91.6529 56.2388 90.9082 55.4543 90.007 54.8864C89.6941 54.6574 89.3261 54.5154 88.9405 54.4748C88.5549 54.4343 88.1654 54.4965 87.8117 54.6553L73.9469 62.3098L68.1699 52.8067C67.6418 51.8906 66.8981 51.1172 66.0035 50.5536C65.6906 50.3247 65.3226 50.1827 64.937 50.1421C64.5514 50.1015 64.162 50.1638 63.8082 50.3225C62.5662 50.9869 62.5951 53.211 63.8082 55.233L71.6361 68.4335C72.1359 69.3439 72.8622 70.11 73.7447 70.6576C74.066 70.8907 74.4406 71.0393 74.8343 71.0897C75.228 71.1402 75.6281 71.091 75.9977 70.9465L92.0578 62.0788" fill="#454CEE"/>
  <path style="mix-blend-mode:screen" d="M60.6213 128.001L34 46.0496H129.523L102.902 128.001H60.6213Z" fill="url(#paint0_linear_4250:12315)"/>
  <path style="mix-blend-mode:screen" d="M71.0606 128.001L50.7031 46.0496H112.819L92.462 128.001H71.0606Z" fill="url(#paint1_linear_4250:12315)"/>
  <path style="mix-blend-mode:screen" d="M78.3845 128.001L68.4668 46.0496H95.0881L85.1703 128.001H78.3845Z" fill="url(#paint2_linear_4250:12315)"/>
  <path d="M103.875 104.569C104.12 104.569 104.319 104.371 104.319 104.126C104.319 103.881 104.12 103.682 103.875 103.682C103.63 103.682 103.432 103.881 103.432 104.126C103.432 104.371 103.63 104.569 103.875 104.569Z" fill="white"/>
  <path d="M84.2581 92.903C84.5032 92.903 84.7018 92.7044 84.7018 92.4593C84.7018 92.2143 84.5032 92.0156 84.2581 92.0156C84.0131 92.0156 83.8145 92.2143 83.8145 92.4593C83.8145 92.7044 84.0131 92.903 84.2581 92.903Z" fill="white"/>
  <path d="M58.096 94.8342C58.3411 94.8342 58.5397 94.6355 58.5397 94.3905C58.5397 94.1454 58.3411 93.9468 58.096 93.9468C57.851 93.9468 57.6523 94.1454 57.6523 94.3905C57.6523 94.6355 57.851 94.8342 58.096 94.8342Z" fill="white"/>
  <path d="M81.2562 110.426C81.5012 110.426 81.6999 110.227 81.6999 109.982C81.6999 109.737 81.5012 109.539 81.2562 109.539C81.0111 109.539 80.8125 109.737 80.8125 109.982C80.8125 110.227 81.0111 110.426 81.2562 110.426Z" fill="white"/>
  <path d="M108.02 92.4592C108.265 92.4592 108.464 92.2605 108.464 92.0155C108.464 91.7704 108.265 91.5718 108.02 91.5718C107.775 91.5718 107.576 91.7704 107.576 92.0155C107.576 92.2605 107.775 92.4592 108.02 92.4592Z" fill="white"/>
  <path d="M95.0882 83.5331C95.3332 83.5331 95.5319 83.3345 95.5319 83.0894C95.5319 82.8444 95.3332 82.6458 95.0882 82.6458C94.8432 82.6458 94.6445 82.8444 94.6445 83.0894C94.6445 83.3345 94.8432 83.5331 95.0882 83.5331Z" fill="white"/>
  <path d="M87.4945 75.5573C87.7395 75.5573 87.9381 75.3587 87.9381 75.1136C87.9381 74.8686 87.7395 74.6699 87.4945 74.6699C87.2494 74.6699 87.0508 74.8686 87.0508 75.1136C87.0508 75.3587 87.2494 75.5573 87.4945 75.5573Z" fill="white"/>
  <path d="M61.8851 113.464C62.1301 113.464 62.3288 113.265 62.3288 113.02C62.3288 112.775 62.1301 112.577 61.8851 112.577C61.64 112.577 61.4414 112.775 61.4414 113.02C61.4414 113.265 61.64 113.464 61.8851 113.464Z" fill="white"/>
  <path d="M65.0179 85.7255C65.2629 85.7255 65.4616 85.5269 65.4616 85.2818C65.4616 85.0368 65.2629 84.8381 65.0179 84.8381C64.7729 84.8381 64.5742 85.0368 64.5742 85.2818C64.5742 85.5269 64.7729 85.7255 65.0179 85.7255Z" fill="white"/>
  <path d="M31.7527 71.023C31.7533 70.9722 31.7401 70.9222 31.7145 70.8783C31.6889 70.8344 31.6519 70.7983 31.6074 70.7739L28.707 69.0976C28.5985 69.0337 28.4749 69 28.349 69C28.2231 69 28.0995 69.0337 27.991 69.0976L25.0907 70.7739C25.0462 70.7983 25.0091 70.8344 24.9835 70.8783C24.9579 70.9222 24.9448 70.9722 24.9454 71.023V74.3184C24.9442 74.3693 24.9571 74.4196 24.9828 74.4636C25.0084 74.5075 25.0458 74.5435 25.0907 74.5675L27.9651 76.2127C28.0736 76.2766 28.1972 76.3103 28.3231 76.3103C28.449 76.3103 28.5726 76.2766 28.6811 76.2127L31.5815 74.5364C31.6264 74.5124 31.6637 74.4764 31.6893 74.4324C31.715 74.3884 31.7279 74.3382 31.7267 74.2873V71.023H31.7527Z" fill="#2027C9"/>
  <path d="M31.7526 71.023C31.7527 71.0737 31.7393 71.1235 31.7137 71.1672C31.6882 71.211 31.6515 71.2472 31.6073 71.2721L31.4984 71.3344L28.707 72.9484C28.5976 73.0097 28.4744 73.042 28.349 73.042C28.2236 73.042 28.1003 73.0097 27.991 72.9484L25.1996 71.3344L25.0906 71.2721C25.0465 71.2472 25.0097 71.211 24.9842 71.1672C24.9587 71.1235 24.9453 71.0737 24.9453 71.023C24.9447 70.9722 24.9579 70.9222 24.9835 70.8783C25.0091 70.8344 25.0461 70.7983 25.0906 70.7739L27.991 69.0976C28.0995 69.0337 28.2231 69 28.349 69C28.4749 69 28.5985 69.0337 28.707 69.0976L31.6073 70.7739C31.6519 70.7983 31.6889 70.8344 31.7145 70.8783C31.7401 70.9222 31.7532 70.9722 31.7526 71.023Z" fill="#454CEE"/>
  <path d="M11.6533 80.3333C11.6539 80.2471 11.6316 80.1623 11.5888 80.0876C11.5459 80.0129 11.4841 79.9508 11.4095 79.9077L6.43891 77.0378C6.25259 76.9308 6.0415 76.8745 5.82667 76.8745C5.61183 76.8745 5.40074 76.9308 5.21443 77.0378L0.243865 79.9077C0.169268 79.9508 0.10741 80.0129 0.0645767 80.0876C0.0217434 80.1623 -0.000533266 80.2471 9.69297e-06 80.3333V85.9797C-0.000533266 86.0658 0.0217434 86.1506 0.0645767 86.2253C0.10741 86.3001 0.169268 86.3621 0.243865 86.4052L5.21443 89.2751C5.40074 89.3821 5.61183 89.4384 5.82667 89.4384C6.0415 89.4384 6.25259 89.3821 6.43891 89.2751L11.4095 86.4052C11.4841 86.3621 11.5459 86.3001 11.5888 86.2253C11.6316 86.1506 11.6539 86.0658 11.6533 85.9797V80.3333Z" fill="#2027C9"/>
  <path d="M11.6533 80.3333C11.6509 80.4189 11.6274 80.5025 11.5848 80.5767C11.5423 80.651 11.482 80.7135 11.4095 80.7589L11.2227 80.8679L6.43891 83.6236C6.25347 83.7332 6.04204 83.791 5.82667 83.791C5.61129 83.791 5.39986 83.7332 5.21443 83.6236L0.43584 80.8834L0.243865 80.7744C0.171289 80.7291 0.111046 80.6665 0.0684996 80.5923C0.0259528 80.518 0.00242648 80.4344 9.69297e-06 80.3489C-0.000533266 80.2627 0.0217434 80.178 0.0645767 80.1032C0.10741 80.0285 0.169268 79.9664 0.243865 79.9233L5.21443 77.0534C5.40074 76.9464 5.61183 76.8901 5.82667 76.8901C6.0415 76.8901 6.25259 76.9464 6.43891 77.0534L11.4095 79.9233C11.4818 79.9651 11.5422 80.0247 11.5849 80.0965C11.6276 80.1683 11.6512 80.2498 11.6533 80.3333Z" fill="#454CEE"/>
  <defs>
    <linearGradient id="paint0_linear_4250:12315" x1="81.7669" y1="128.403" x2="81.7669" y2="49.3068" gradientUnits="userSpaceOnUse">
      <stop offset="0.01" stop-color="white" stop-opacity="0.78"/>
      <stop offset="0.06" stop-color="white" stop-opacity="0.61"/>
      <stop offset="0.11" stop-color="white" stop-opacity="0.47"/>
      <stop offset="0.16" stop-color="white" stop-opacity="0.34"/>
      <stop offset="0.22" stop-color="white" stop-opacity="0.23"/>
      <stop offset="0.29" stop-color="white" stop-opacity="0.15"/>
      <stop offset="0.37" stop-color="white" stop-opacity="0.08"/>
      <stop offset="0.47" stop-color="white" stop-opacity="0.03"/>
      <stop offset="0.61" stop-color="white" stop-opacity="0.01"/>
      <stop offset="1" stop-color="white" stop-opacity="0"/>
    </linearGradient>
    <linearGradient id="paint1_linear_4250:12315" x1="81.7665" y1="127.913" x2="81.7665" y2="48.7952" gradientUnits="userSpaceOnUse">
      <stop offset="0.01" stop-color="white" stop-opacity="0.7"/>
      <stop offset="0.08" stop-color="white" stop-opacity="0.56"/>
      <stop offset="0.16" stop-color="white" stop-opacity="0.41"/>
      <stop offset="0.26" stop-color="white" stop-opacity="0.28"/>
      <stop offset="0.36" stop-color="white" stop-opacity="0.18"/>
      <stop offset="0.47" stop-color="white" stop-opacity="0.1"/>
      <stop offset="0.6" stop-color="white" stop-opacity="0.04"/>
      <stop offset="0.75" stop-color="white" stop-opacity="0.01"/>
      <stop offset="1" stop-color="white" stop-opacity="0"/>
    </linearGradient>
    <linearGradient id="paint2_linear_4250:12315" x1="81.7774" y1="127.913" x2="81.7774" y2="48.529" gradientUnits="userSpaceOnUse">
      <stop offset="0.01" stop-color="white" stop-opacity="0.7"/>
      <stop offset="0.03" stop-color="white" stop-opacity="0.65"/>
      <stop offset="0.15" stop-color="white" stop-opacity="0.48"/>
      <stop offset="0.27" stop-color="white" stop-opacity="0.33"/>
      <stop offset="0.39" stop-color="white" stop-opacity="0.21"/>
      <stop offset="0.52" stop-color="white" stop-opacity="0.12"/>
      <stop offset="0.66" stop-color="white" stop-opacity="0.05"/>
      <stop offset="0.81" stop-color="white" stop-opacity="0.01"/>
      <stop offset="1" stop-color="white" stop-opacity="0"/>
    </linearGradient>
  </defs>
</svg>
