<svg width="174" height="128" viewBox="0 0 174 128" fill="none" xmlns="http://www.w3.org/2000/svg">
  <path d="M187.84 131.203C187.629 132.25 187.196 133.241 186.569 134.106C185.943 134.972 185.138 135.694 184.209 136.222L113.07 177.295C110.769 178.623 108.158 179.322 105.5 179.322C102.843 179.322 100.232 178.623 97.9301 177.295L26.786 136.222C25.6387 135.556 24.6863 134.601 24.0242 133.452C23.3622 132.303 23.0137 130.999 23.0137 129.673C23.0137 128.347 23.3622 127.044 24.0242 125.894C24.6863 124.745 25.6387 123.79 26.786 123.125L97.9301 82.0517C100.231 80.7208 102.842 80.02 105.5 80.02C108.158 80.02 110.77 80.7208 113.07 82.0517L184.209 123.125C185.59 123.915 186.685 125.123 187.337 126.574C187.989 128.025 188.165 129.646 187.84 131.203Z" fill="#373D51"/>
  <path d="M187.838 51.1829C187.627 52.2304 187.194 53.2205 186.567 54.0863C185.941 54.9521 185.136 55.6735 184.207 56.2017L113.068 97.2746C110.767 98.6029 108.156 99.3022 105.498 99.3022C102.841 99.3022 100.23 98.6029 97.9282 97.2746L26.7841 56.2017C25.6367 55.5363 24.6843 54.5811 24.0223 53.4318C23.3602 52.2825 23.0117 50.9795 23.0117 49.6531C23.0117 48.3268 23.3602 47.0237 24.0223 45.8744C24.6843 44.7251 25.6367 43.7699 26.7841 43.1045L97.9282 2.03167C100.229 0.700766 102.84 0 105.498 0C108.156 0 110.768 0.700766 113.068 2.03167L184.207 43.1045C185.589 43.8946 186.684 45.1019 187.336 46.5533C187.989 48.0047 188.164 49.6255 187.838 51.1829Z" fill="white"/>
  <path d="M187.988 52.7952C187.996 54.125 187.649 55.4327 186.985 56.5844C186.32 57.7361 185.361 58.6903 184.206 59.3491L113.062 100.427C110.761 101.756 108.151 102.455 105.494 102.455C102.837 102.455 100.227 101.756 97.9265 100.427L26.7825 59.3491C25.6498 58.7069 24.7048 57.7796 24.0413 56.6594C23.3778 55.5391 23.0188 54.2648 23 52.9629V52.6119C23.0126 52.1576 23.0652 51.7053 23.1571 51.2603C23.3659 52.3079 23.7978 53.2984 24.4233 54.1644C25.0488 55.0304 25.8535 55.7516 26.7825 56.2791L97.9265 97.352C100.227 98.6803 102.837 99.3797 105.494 99.3797C108.151 99.3797 110.761 98.6803 113.062 97.352L184.206 56.2791C185.135 55.7516 185.939 55.0304 186.565 54.1644C187.19 53.2984 187.622 52.3079 187.831 51.2603C187.936 51.7652 187.988 52.2796 187.988 52.7952Z" fill="#7A7E8C"/>
  <path d="M187.989 52.7954C187.989 52.7954 187.884 113.566 187.884 114.363L187.837 114.609C187.627 115.656 187.193 116.646 186.567 117.511C185.941 118.376 185.136 119.096 184.206 119.623L113.067 160.675C110.767 162.005 108.155 162.706 105.497 162.706C102.839 162.706 100.228 162.005 97.9272 160.675L26.7883 119.602C25.8591 119.075 25.0541 118.355 24.4277 117.49C23.8013 116.625 23.3681 115.635 23.1577 114.588L23.1106 114.342C23.1106 113.556 23.0059 52.9368 23.0059 52.9368C23.0253 54.2393 23.3845 55.5141 24.0479 56.6351C24.7114 57.7561 25.656 58.6844 26.7883 59.3283L91.017 96.4091L97.9272 100.401C100.229 101.729 102.84 102.429 105.497 102.429C108.155 102.429 110.766 101.729 113.067 100.401L119.978 96.4091L184.206 59.3283C185.359 58.6721 186.317 57.7214 186.981 56.5735C187.646 55.4256 187.994 54.1218 187.989 52.7954Z" fill="#EBEDF0"/>
  <path d="M94.3335 118.281V122.75C94.3351 122.949 94.2837 123.146 94.1848 123.319C94.0858 123.491 93.9427 123.635 93.7702 123.735C93.5976 123.834 93.4018 123.886 93.2025 123.885C93.0033 123.885 92.8078 123.831 92.6361 123.73L34.7097 90.2954C34.3654 90.0972 34.0795 89.8117 33.8808 89.4677C33.6821 89.1236 33.5777 88.7333 33.5781 88.336V83.8725C33.5782 83.6739 33.6305 83.4788 33.7299 83.3068C33.8292 83.1348 33.9721 82.9921 34.1441 82.8928C34.3161 82.7935 34.5112 82.7412 34.7098 82.7412C34.9084 82.7412 35.1035 82.7935 35.2755 82.8928L37.675 84.2759L93.2072 116.322C93.5505 116.521 93.8353 116.807 94.0331 117.151C94.2308 117.495 94.3345 117.885 94.3335 118.281Z" fill="#7A7E8C"/>
  <path d="M94.3331 118.281V121.032L38.8009 88.9804C38.4556 88.7816 38.1687 88.4954 37.9691 88.1505C37.7695 87.8056 37.6643 87.4143 37.6641 87.0158V84.2759L93.1962 116.322C93.5415 116.52 93.8285 116.805 94.0281 117.149C94.2277 117.493 94.333 117.884 94.3331 118.281Z" fill="#4D5365"/>
  <path d="M94.3335 135.161V139.63C94.3351 139.829 94.2837 140.025 94.1848 140.198C94.0858 140.371 93.9427 140.514 93.7702 140.614C93.5976 140.714 93.4018 140.766 93.2026 140.765C93.0033 140.764 92.8078 140.71 92.6361 140.609L34.7097 107.175C34.3651 106.977 34.0788 106.692 33.8801 106.348C33.6814 106.003 33.5772 105.613 33.5781 105.215V100.752C33.5782 100.553 33.6305 100.358 33.7299 100.186C33.8292 100.014 33.9721 99.8715 34.1441 99.7722C34.3161 99.6729 34.5112 99.6206 34.7098 99.6206C34.9084 99.6206 35.1035 99.6729 35.2755 99.7722L37.675 101.155L93.2072 133.202C93.5498 133.401 93.8341 133.687 94.0317 134.031C94.2293 134.375 94.3334 134.764 94.3335 135.161Z" fill="#7A7E8C"/>
  <path d="M94.3331 135.161V137.911L38.8009 105.86C38.456 105.662 38.1693 105.377 37.9697 105.033C37.7701 104.689 37.6647 104.298 37.6641 103.9V101.155L93.1962 133.202C93.5408 133.4 93.8272 133.685 94.0267 134.029C94.2262 134.373 94.3319 134.763 94.3331 135.161Z" fill="#4D5365"/>
  <path d="M117.266 35.6745V43.3076C117.238 43.0437 117.142 42.7917 116.986 42.5767C116.831 42.3616 116.622 42.1909 116.38 42.0817C115.49 41.6181 114.473 41.4563 113.483 41.6206L113.457 33.9876C114.449 33.8202 115.468 33.9821 116.359 34.4486C116.601 34.5574 116.811 34.728 116.966 34.9431C117.121 35.1583 117.218 35.4105 117.245 35.6745" fill="#2027C9"/>
  <path d="M113.503 41.6208L88.2573 45.3824L88.2363 37.7493L113.483 33.9878L113.503 41.6208Z" fill="#2027C9"/>
  <path d="M88.2308 37.7493V45.3823C87.7418 45.4455 87.269 45.6001 86.8372 45.8381C86.5027 46.0133 86.2288 46.2853 86.0514 46.6187C85.9785 46.7689 85.9409 46.9338 85.9414 47.1007V39.4676C85.9421 39.3002 85.9815 39.1352 86.0567 38.9856C86.234 38.6523 86.5079 38.3802 86.8425 38.205C87.2718 37.9655 87.7431 37.8108 88.2308 37.7493Z" fill="#2027C9"/>
  <path d="M146.219 37.5605V45.1988C146.219 46.4562 145.606 47.724 144.344 48.8294V41.1911C145.606 40.1066 146.224 38.8441 146.219 37.5605Z" fill="#2027C9"/>
  <path d="M146.219 37.5605V45.1988C146.219 46.4562 145.606 47.724 144.344 48.8294V41.1911C145.606 40.0857 146.224 38.8231 146.219 37.5605Z" fill="#2027C9"/>
  <path d="M65.4736 49.9978V57.6308C63.31 56.3735 62.1888 54.697 62.1836 53.0049V45.3718C62.1836 47.064 63.3047 48.7404 65.4684 49.9978" fill="#2027C9"/>
  <path d="M141.966 43.3232V50.9563C137.148 55.1383 131.932 58.8372 126.391 61.9999C120.26 65.5025 113.859 68.5087 107.248 70.9898V63.3567C113.859 60.8751 120.261 57.8671 126.391 54.3616C131.933 51.2025 137.149 47.5052 141.966 43.3232Z" fill="#2027C9"/>
  <path d="M141.966 43.3232V50.9563C137.148 55.1383 131.932 58.8372 126.391 61.9999C120.26 65.5025 113.859 68.5087 107.248 70.9898V63.3567C113.859 60.8751 120.261 57.8671 126.391 54.3616C131.933 51.2025 137.149 47.5052 141.966 43.3232Z" fill="#2027C9"/>
  <path d="M89.3731 63.8811L89.394 71.5194L65.4995 57.6311L65.4785 49.998L89.3731 63.8811Z" fill="#2027C9"/>
  <path d="M144.371 48.8503L141.988 50.9354L141.967 43.3024L144.35 41.212L144.371 48.8503Z" fill="#2027C9"/>
  <path d="M107.233 63.3567L107.254 70.9897L103.644 72.3623L103.623 64.7293L107.233 63.3567Z" fill="#2027C9"/>
  <path d="M103.618 64.7293V72.3624C99.1384 74.065 93.1398 73.7088 89.373 71.5189V63.8806C93.145 66.0757 99.1488 66.4319 103.618 64.7293Z" fill="#2027C9"/>
  <path d="M103.618 64.7293V72.3624C99.1384 74.065 93.1398 73.7088 89.373 71.5189V63.8806C93.145 66.0757 99.1384 66.4319 103.618 64.7293Z" fill="#2027C9"/>
  <path d="M104.792 18.2292C109.271 16.5265 115.27 16.8776 119.037 19.0726L142.931 32.9609C146.708 35.156 147.306 38.6241 144.346 41.2122L141.967 43.3077C137.151 47.4951 131.934 51.1977 126.392 54.3618C120.262 57.8673 113.86 60.8753 107.249 63.3569L103.634 64.7295C99.1552 66.4322 93.1566 66.0759 89.3899 63.8808L65.4901 49.9978C61.7181 47.8027 61.1209 44.3293 64.0809 41.7413L66.4593 39.6457C71.2826 35.459 76.5045 31.7549 82.0502 28.5864C88.1809 25.0821 94.5823 22.0741 101.193 19.5913L104.792 18.2292ZM117.166 36.1305C117.434 35.5227 117.166 34.8941 116.381 34.4488C115.489 33.9822 114.47 33.8203 113.478 33.9877L88.2321 37.7493C87.7444 37.8108 87.2731 37.9655 86.8438 38.205C86.5092 38.3802 86.2353 38.6522 86.058 38.9856C85.7593 39.5986 86.0579 40.2377 86.8333 40.6883L105.51 51.5433C106.412 52.0162 107.446 52.1747 108.449 51.9938C108.924 51.931 109.383 51.778 109.801 51.5433C110.143 51.3668 110.42 51.0861 110.592 50.7417L117.166 36.1305Z" fill="#454CEE"/>
  <path d="M16.7527 63.1485C16.7533 63.0977 16.7401 63.0477 16.7145 63.0038C16.6889 62.9599 16.6519 62.9238 16.6074 62.8994L13.707 61.2231C13.5985 61.1592 13.4749 61.1255 13.349 61.1255C13.2231 61.1255 13.0995 61.1592 12.991 61.2231L10.0907 62.8994C10.0462 62.9238 10.0091 62.9599 9.98354 63.0038C9.95795 63.0477 9.94476 63.0977 9.94539 63.1485V66.4439C9.94418 66.4948 9.95712 66.5451 9.98277 66.589C10.0084 66.633 10.0458 66.669 10.0907 66.693L12.9651 68.3382C13.0736 68.4021 13.1972 68.4358 13.3231 68.4358C13.449 68.4358 13.5726 68.4021 13.6811 68.3382L16.5815 66.6619C16.6264 66.6379 16.6637 66.6019 16.6893 66.5579C16.715 66.5139 16.7279 66.4637 16.7267 66.4128V63.1485H16.7527Z" fill="#2027C9"/>
  <path d="M16.7526 63.1485C16.7527 63.1991 16.7393 63.2489 16.7137 63.2927C16.6882 63.3365 16.6515 63.3727 16.6073 63.3976L16.4984 63.4598L13.707 65.0738C13.5976 65.1352 13.4744 65.1674 13.349 65.1674C13.2236 65.1674 13.1003 65.1352 12.991 65.0738L10.1996 63.4598L10.0906 63.3976C10.0465 63.3727 10.0097 63.3365 9.98421 63.2927C9.95867 63.2489 9.94526 63.1991 9.94533 63.1485C9.9447 63.0977 9.95789 63.0477 9.98348 63.0038C10.0091 62.9599 10.0461 62.9238 10.0906 62.8994L12.991 61.2231C13.0995 61.1592 13.2231 61.1255 13.349 61.1255C13.4749 61.1255 13.5985 61.1592 13.707 61.2231L16.6073 62.8994C16.6519 62.9238 16.6889 62.9599 16.7145 63.0038C16.7401 63.0477 16.7532 63.0977 16.7526 63.1485Z" fill="#454CEE"/>
  <path d="M11.6533 82.4588C11.6539 82.3726 11.6316 82.2878 11.5888 82.2131C11.5459 82.1383 11.4841 82.0763 11.4095 82.0332L6.43891 79.1633C6.25259 79.0563 6.0415 79 5.82667 79C5.61183 79 5.40074 79.0563 5.21443 79.1633L0.243865 82.0332C0.169268 82.0763 0.10741 82.1383 0.0645767 82.2131C0.0217434 82.2878 -0.000533266 82.3726 9.69297e-06 82.4588V88.1052C-0.000533266 88.1913 0.0217434 88.2761 0.0645767 88.3508C0.10741 88.4256 0.169268 88.4876 0.243865 88.5307L5.21443 91.4006C5.40074 91.5076 5.61183 91.5639 5.82667 91.5639C6.0415 91.5639 6.25259 91.5076 6.43891 91.4006L11.4095 88.5307C11.4841 88.4876 11.5459 88.4256 11.5888 88.3508C11.6316 88.2761 11.6539 88.1913 11.6533 88.1052V82.4588Z" fill="#2027C9"/>
  <path d="M11.6533 82.4588C11.6509 82.5444 11.6274 82.628 11.5848 82.7022C11.5423 82.7765 11.482 82.839 11.4095 82.8844L11.2227 82.9933L6.43891 85.7491C6.25347 85.8586 6.04204 85.9164 5.82667 85.9164C5.61129 85.9164 5.39986 85.8586 5.21443 85.7491L0.43584 83.0089L0.243865 82.8999C0.171289 82.8546 0.111046 82.792 0.0684996 82.7178C0.0259528 82.6435 0.00242648 82.5599 9.69297e-06 82.4744C-0.000533266 82.3882 0.0217434 82.3035 0.0645767 82.2287C0.10741 82.154 0.169268 82.0919 0.243865 82.0488L5.21443 79.1789C5.40074 79.0719 5.61183 79.0156 5.82667 79.0156C6.0415 79.0156 6.25259 79.0719 6.43891 79.1789L11.4095 82.0488C11.4818 82.0906 11.5422 82.1502 11.5849 82.222C11.6276 82.2937 11.6512 82.3753 11.6533 82.4588Z" fill="#454CEE"/>
</svg>
