<svg width="170" height="123" viewBox="0 0 170 123" fill="none" xmlns="http://www.w3.org/2000/svg">
  <path d="M152.887 104.3C180.894 120.482 181.044 146.685 153.223 162.856C125.401 179.026 80.1144 179.038 52.1079 162.856C24.1014 146.674 23.9511 120.471 51.7843 104.289C79.6174 88.1065 124.869 88.1179 152.887 104.3Z" fill="#7A7E8C"/>
  <path d="M147.166 157.331C131.967 166.323 110.872 169.745 91.1418 167.572C79.0631 166.254 67.4929 162.833 58.1188 157.331C33.4528 142.836 33.3256 119.326 57.8299 104.832C67.1345 99.3298 78.6353 95.92 90.7372 94.5908C110.387 92.4293 131.585 95.8391 146.877 104.832C171.555 119.326 171.671 142.836 147.166 157.331Z" fill="#373D51"/>
  <path d="M147.166 151.263C131.967 159.55 110.872 162.706 91.1418 160.706C79.0631 159.55 67.4929 156.337 58.1188 151.263C33.4528 137.889 33.3256 116.206 57.8299 102.832C67.1345 97.758 78.6353 94.614 90.7372 93.3888C110.387 91.4007 131.585 94.5447 146.877 102.832C171.555 116.206 171.671 137.889 147.166 151.263Z" fill="#454CEE"/>
  <path d="M124.049 151.263C114.802 156.337 103.244 159.481 91.1419 160.706C79.0631 159.55 67.4929 156.337 58.1188 151.263C33.4528 137.889 33.3256 116.205 57.8299 102.832C67.1346 97.7579 78.6353 94.6139 90.7372 93.3887C102.816 94.5445 114.386 97.7579 123.76 102.832C148.438 116.205 148.553 137.889 124.049 151.263Z" fill="#2027C9"/>
  <path d="M173.994 80.6048L173.925 103.225C173.925 113.755 166.99 124.262 153.12 132.295C125.287 148.477 80.0228 148.477 52.0163 132.295C37.9148 124.204 30.8756 113.466 30.9103 102.809V80.1887C30.9103 90.8573 37.9264 101.537 52.0163 109.675C80.0228 125.857 125.298 125.857 153.131 109.675C166.943 101.642 173.867 91.1811 173.936 80.5934" fill="#4D5365"/>
  <path d="M152.887 51.1303C180.894 67.3123 181.044 93.5157 153.223 109.686C125.401 125.857 80.1144 125.868 52.1079 109.686C24.1014 93.5042 23.9511 67.3009 51.7843 51.1189C79.6174 34.9368 124.869 34.9482 152.887 51.1303Z" fill="#7A7E8C"/>
  <path d="M173.994 40.1888L173.925 62.8091C173.925 73.339 166.99 83.8458 153.12 91.879C125.287 108.061 80.0228 108.061 52.0163 91.879C37.9148 83.788 30.8756 73.05 30.9103 62.393V39.7727C30.9103 50.4413 37.9264 61.1215 52.0163 69.2587C80.0228 85.4408 125.298 85.4408 153.131 69.2587C166.943 61.2255 173.867 50.7651 173.936 40.1774" fill="#EBEDF0"/>
  <path d="M153.223 71.2702C125.39 87.4522 80.1267 87.4522 52.1202 71.2702C51.2302 70.75 50.3633 70.2299 49.5311 69.6982C28.425 56.1978 25.3505 36.6059 40.3536 21.3832C43.7577 17.9903 47.6026 15.0708 51.7849 12.7028C79.6065 -3.47923 124.882 -3.47923 152.888 12.7028C180.895 28.8849 181.045 55.0997 153.223 71.2702Z" fill="white"/>
  <path d="M112.601 22.5599L112.554 38.0627C112.554 35.7991 110.338 34.4105 110.338 33.4214L110.385 17.9186C110.385 18.8697 112.601 20.2868 112.601 22.5599Z" fill="#2027C9"/>
  <path d="M142.301 39.4989C142.256 40.6563 141.941 41.7871 141.382 42.801C140.822 43.815 140.033 44.684 139.077 45.3386C138.83 45.5208 138.573 45.6891 138.307 45.8427V50.4365C136.167 51.0451 132.391 49.4188 128.653 47.2693L120.797 42.7326C118.261 43.3992 115.634 43.6529 113.017 43.484V38.6334C109.745 37.1635 106.28 36.1675 102.726 35.6755C101.565 35.5266 100.397 35.444 99.2264 35.4282C98.6462 35.4282 98.0566 35.4282 97.4669 35.4282C95.6844 35.5237 93.9161 35.7977 92.1883 36.2462C89.7471 36.9069 87.4079 37.8989 85.2358 39.1945V45.7381C84.6833 46.2704 84.0885 46.7571 83.4573 47.1932C83.0559 47.4287 82.6018 47.56 82.1367 47.5749C81.6715 47.5899 81.21 47.4881 80.7942 47.2788C80.7129 47.2328 80.6364 47.1786 80.566 47.1171C79.2249 45.9568 77.3132 44.0451 76.7616 42.2476V40.5927C74.0034 41.4581 67.7262 40.2598 64.1787 39.4609C63.9628 39.4144 63.7547 39.3376 63.5605 39.2326C63.4201 39.1611 63.2997 39.0559 63.2101 38.9264C63.1205 38.797 63.0644 38.6472 63.0469 38.4907V46.9935C63.0653 47.151 63.1229 47.3013 63.2142 47.4309C63.3056 47.5605 63.4279 47.6651 63.57 47.7354C63.7608 47.8404 63.9659 47.9172 64.1787 47.9636C67.6692 48.753 73.8037 49.9229 76.638 49.1335V49.8848C76.638 51.9012 78.9872 54.2694 80.5374 55.5914C80.6079 55.6528 80.6844 55.707 80.7657 55.7531C81.1814 55.9623 81.643 56.0641 82.1081 56.0492C82.5733 56.0342 83.0273 55.903 83.4288 55.6675C85.9587 53.9175 87.0619 52.2436 87.0619 50.7599V46.7177C93.0456 43.7933 99.8814 43.1181 106.322 44.8155V49.571C106.322 49.7041 106.474 49.8563 106.797 50.037C111.372 52.6811 116.879 52.158 120.845 51.1593L128.701 55.696C132.79 58.0547 136.937 59.7857 138.925 58.6349C139.339 58.433 139.674 58.0981 139.876 57.6838C139.936 57.5491 139.965 57.403 139.962 57.2558V53.1091C140.676 52.4597 141.252 51.6725 141.654 50.7947C142.056 49.9169 142.276 48.9668 142.301 48.0017V39.4989Z" fill="#2027C9"/>
  <path d="M121.617 19.8875C124.063 21.2538 125.956 23.4297 126.972 26.041C129.469 26.9976 131.886 28.1521 134.2 29.4935C146.136 36.3794 142.551 43.3889 138.328 45.8427C140.648 48.696 140.163 49.4664 138.898 50.2083C136.911 51.3591 132.764 49.6281 128.665 47.2694L120.809 42.7327C116.843 43.7313 111.298 44.2544 106.771 41.6104C105.011 40.5927 108.387 40.7069 113.048 38.6335C104.117 34.734 94.492 33.8019 85.2093 39.1946C87.8914 41.2204 87.9009 44.0737 83.4118 47.1933C83.0103 47.4288 82.5563 47.56 82.0911 47.575C81.6259 47.5899 81.1644 47.4881 80.7487 47.2789C80.6674 47.2328 80.5909 47.1787 80.5204 47.1172C78.7514 45.586 75.9647 42.7327 76.7161 40.5927C73.9579 41.4582 67.6807 40.2598 64.1331 39.4609C63.9173 39.4145 63.7091 39.3377 63.5149 39.2327C62.8301 38.8332 62.8016 38.1389 63.591 37.7204C68.5747 35.0574 73.0068 33.7924 78.8941 35.5614C82.1072 32.2649 85.7664 29.4348 89.765 27.1538C92.6849 25.4513 101.359 22.094 112.591 22.8263C112.829 19.8114 109.072 18.2896 110.87 17.2434C112.144 16.5301 117.261 17.3766 121.617 19.8875Z" fill="#454CEE"/>
  <path d="M31.7527 58.023C31.7533 57.9722 31.7401 57.9222 31.7145 57.8783C31.6889 57.8344 31.6519 57.7983 31.6074 57.7739L28.707 56.0976C28.5985 56.0337 28.4749 56 28.349 56C28.2231 56 28.0995 56.0337 27.991 56.0976L25.0907 57.7739C25.0462 57.7983 25.0091 57.8344 24.9835 57.8783C24.9579 57.9222 24.9448 57.9722 24.9454 58.023V61.3184C24.9442 61.3693 24.9571 61.4196 24.9828 61.4636C25.0084 61.5075 25.0458 61.5435 25.0907 61.5675L27.9651 63.2127C28.0736 63.2766 28.1972 63.3103 28.3231 63.3103C28.449 63.3103 28.5726 63.2766 28.6811 63.2127L31.5815 61.5364C31.6264 61.5124 31.6637 61.4764 31.6893 61.4324C31.715 61.3884 31.7279 61.3382 31.7267 61.2873V58.023H31.7527Z" fill="#2027C9"/>
  <path d="M31.7526 58.023C31.7527 58.0737 31.7393 58.1235 31.7137 58.1672C31.6882 58.211 31.6515 58.2472 31.6073 58.2721L31.4984 58.3344L28.707 59.9484C28.5976 60.0097 28.4744 60.042 28.349 60.042C28.2236 60.042 28.1003 60.0097 27.991 59.9484L25.1996 58.3344L25.0906 58.2721C25.0465 58.2472 25.0097 58.211 24.9842 58.1672C24.9587 58.1235 24.9453 58.0737 24.9453 58.023C24.9447 57.9722 24.9579 57.9222 24.9835 57.8783C25.0091 57.8344 25.0461 57.7983 25.0906 57.7739L27.991 56.0976C28.0995 56.0337 28.2231 56 28.349 56C28.4749 56 28.5985 56.0337 28.707 56.0976L31.6073 57.7739C31.6519 57.7983 31.6889 57.8344 31.7145 57.8783C31.7401 57.9222 31.7532 57.9722 31.7526 58.023Z" fill="#454CEE"/>
  <path d="M17.5031 92.8511C17.5039 92.7235 17.4707 92.5981 17.4068 92.4877C17.343 92.3773 17.2508 92.286 17.1399 92.2231L9.7826 87.9727C9.50688 87.8123 9.19359 87.7278 8.87461 87.7278C8.55563 87.7278 8.24234 87.8123 7.96663 87.9727L0.624927 92.2231C0.513972 92.286 0.421808 92.3773 0.357958 92.4877C0.294107 92.5981 0.260889 92.7235 0.261734 92.8511V101.222C0.260889 101.35 0.294107 101.475 0.357958 101.585C0.421808 101.696 0.513972 101.787 0.624927 101.85L7.98738 106.1C8.26395 106.258 8.57691 106.341 8.89537 106.341C9.21382 106.341 9.52678 106.258 9.80335 106.1L17.1606 101.85C17.2723 101.787 17.365 101.695 17.4289 101.583C17.4928 101.472 17.5256 101.345 17.5238 101.217V92.8511H17.5031Z" fill="#2027C9"/>
  <path d="M17.5021 92.8511C17.504 92.9788 17.4713 93.1047 17.4073 93.2153C17.3434 93.3259 17.2506 93.417 17.1389 93.479L16.8639 93.6451L9.78163 97.7346C9.50506 97.8925 9.1921 97.9756 8.87364 97.9756C8.55519 97.9756 8.24223 97.8925 7.96566 97.7346L0.883381 93.6451L0.603203 93.479C0.493369 93.4151 0.402227 93.3235 0.338878 93.2133C0.275529 93.1031 0.242188 92.9782 0.242188 92.8511C0.242188 92.724 0.275529 92.5991 0.338878 92.4889C0.402227 92.3787 0.493369 92.2871 0.603203 92.2231L7.96566 87.9727C8.24137 87.8123 8.55466 87.7278 8.87364 87.7278C9.19263 87.7278 9.50591 87.8123 9.78163 87.9727L17.1389 92.2231C17.2499 92.286 17.342 92.3773 17.4059 92.4877C17.4697 92.5981 17.5029 92.7235 17.5021 92.8511Z" fill="#454CEE"/>
  <path d="M11.6533 67.3333C11.6539 67.2471 11.6316 67.1623 11.5888 67.0876C11.5459 67.0129 11.4841 66.9508 11.4095 66.9077L6.43891 64.0378C6.25259 63.9308 6.0415 63.8745 5.82667 63.8745C5.61183 63.8745 5.40074 63.9308 5.21443 64.0378L0.243865 66.9077C0.169268 66.9508 0.10741 67.0129 0.0645767 67.0876C0.0217434 67.1623 -0.000533266 67.2471 9.69297e-06 67.3333V72.9797C-0.000533266 73.0658 0.0217434 73.1506 0.0645767 73.2253C0.10741 73.3001 0.169268 73.3621 0.243865 73.4052L5.21443 76.2751C5.40074 76.3821 5.61183 76.4384 5.82667 76.4384C6.0415 76.4384 6.25259 76.3821 6.43891 76.2751L11.4095 73.4052C11.4841 73.3621 11.5459 73.3001 11.5888 73.2253C11.6316 73.1506 11.6539 73.0658 11.6533 72.9797V67.3333Z" fill="#2027C9"/>
  <path d="M11.6533 67.3333C11.6509 67.4189 11.6274 67.5025 11.5848 67.5767C11.5423 67.651 11.482 67.7135 11.4095 67.7589L11.2227 67.8679L6.43891 70.6236C6.25347 70.7332 6.04204 70.791 5.82667 70.791C5.61129 70.791 5.39986 70.7332 5.21443 70.6236L0.43584 67.8834L0.243865 67.7744C0.171289 67.7291 0.111046 67.6665 0.0684996 67.5923C0.0259528 67.518 0.00242648 67.4344 9.69297e-06 67.3489C-0.000533266 67.2627 0.0217434 67.178 0.0645767 67.1032C0.10741 67.0285 0.169268 66.9664 0.243865 66.9233L5.21443 64.0534C5.40074 63.9464 5.61183 63.8901 5.82667 63.8901C6.0415 63.8901 6.25259 63.9464 6.43891 64.0534L11.4095 66.9233C11.4818 66.9651 11.5422 67.0247 11.5849 67.0965C11.6276 67.1683 11.6512 67.2498 11.6533 67.3333Z" fill="#454CEE"/>
</svg>
