<svg width="340" height="330" viewBox="0 0 340 330" fill="none" xmlns="http://www.w3.org/2000/svg">
  <mask id="mask0_4250:7974" style="mask-type:alpha" maskUnits="userSpaceOnUse" x="0" y="0" width="340" height="330">
    <path d="M0 4C0 1.79086 1.79086 0 4 0H336C338.209 0 340 1.79086 340 4V326C340 328.209 338.209 330 336 330H4C1.79086 330 0 328.209 0 326V4Z" fill="#EBEDF0"/>
  </mask>
  <g mask="url(#mask0_4250:7974)">
    <path d="M152.621 334.003L253.868 394.477L253.935 394.509C254.921 395.002 256.009 395.259 257.112 395.259C258.215 395.259 259.303 395.002 260.29 394.509L260.354 394.477L322.376 358.67C322.869 358.385 323.278 357.976 323.563 357.483C323.847 356.99 323.997 356.431 323.997 355.861V350.167H312.923C311.598 350.165 310.296 349.816 309.149 349.153L217.074 293.985C216.335 293.557 215.496 293.332 214.642 293.332C213.788 293.332 212.949 293.557 212.21 293.985L160.726 323.705C159.791 324.244 158.751 324.577 157.677 324.682C156.603 324.786 155.519 324.66 154.497 324.31L151.051 323.129V330.696C150.944 331.341 151.037 332.004 151.318 332.595C151.599 333.186 152.053 333.677 152.621 334.003V334.003Z" fill="#BEC1D0"/>
    <path d="M152.62 326.437L253.867 386.91L253.933 386.942C254.903 387.489 255.998 387.777 257.111 387.777C258.224 387.777 259.319 387.489 260.289 386.942L260.353 386.91L323.996 350.167L214.64 285.013L152.62 320.82C152.127 321.105 151.718 321.515 151.434 322.008C151.15 322.501 151 323.06 151 323.629C151 324.198 151.15 324.757 151.434 325.25C151.718 325.743 152.127 326.152 152.62 326.437V326.437Z" fill="#EBEDF0"/>
    <path d="M214.643 285.015L324 350.169V264.434C324 261.677 322.324 258.474 320.256 257.279L218.387 196.45C216.311 195.255 214.643 196.523 214.643 199.281V285.015Z" fill="white"/>
    <g clip-path="url(#clip0_4250:7974)">
      <path d="M244.912 251.702L251.869 247.602C253.608 246.574 256.05 246.837 258.961 248.542L252.005 252.655C249.094 250.95 246.651 250.686 244.912 251.702Z" fill="#2027C9"/>
      <path d="M244.912 251.702L251.869 247.602C253.374 246.711 255.421 246.787 257.851 247.953L250.894 252.116C248.428 250.949 246.417 250.862 244.912 251.752" fill="#2027C9"/>
      <path d="M250.895 252.116L257.888 247.953C258.246 248.128 258.616 248.316 258.998 248.542L252.005 252.655C251.645 252.439 251.274 252.242 250.895 252.066" fill="#2027C9"/>
      <path d="M281.09 299.285L274.133 303.385C275.946 302.32 276.982 299.85 276.994 296.176L283.951 292.063C283.939 295.75 282.903 298.207 281.09 299.285Z" fill="#2027C9"/>
      <path d="M276.994 296.176L283.951 292.063C283.951 295.75 282.903 298.207 281.09 299.285L274.133 303.385C275.946 302.32 276.982 299.85 276.994 296.176Z" fill="#2027C9"/>
      <path d="M277.043 279.475L284 275.375L283.951 292.063L276.994 296.176L277.043 279.475Z" fill="#2027C9"/>
      <path d="M252.004 252.655L258.961 248.555L274.133 257.444L267.176 261.557L252.004 252.655Z" fill="#2027C9"/>
      <path d="M267.164 261.557C270.176 263.44 272.664 266.075 274.391 269.211C276.118 272.347 277.027 275.88 277.032 279.475V296.176C277.032 303.386 273.035 305.931 267.09 302.445L251.893 293.493C248.883 291.608 246.396 288.973 244.669 285.837C242.942 282.701 242.032 279.169 242.025 275.575V258.886C242.025 251.639 246.034 249.119 251.98 252.617L267.164 261.557ZM266.843 278.233C267.435 277.895 267.447 276.766 266.843 275.726C266.584 275.253 266.211 274.856 265.758 274.572C265.603 274.456 265.421 274.385 265.23 274.365C265.039 274.345 264.846 274.378 264.672 274.459L257.419 278.647L254.36 273.281C254.105 272.806 253.73 272.408 253.275 272.127C253.123 272.011 252.943 271.939 252.754 271.92C252.565 271.9 252.374 271.932 252.202 272.014C251.597 272.353 251.597 273.469 252.202 274.522L256.358 281.819C256.605 282.286 256.972 282.676 257.419 282.948C257.572 283.066 257.753 283.142 257.944 283.166C258.134 283.19 258.328 283.162 258.505 283.086L266.843 278.246" fill="#454CEE"/>
      <path d="M267.164 261.557L274.121 257.445C277.131 259.329 279.618 261.964 281.345 265.1C283.072 268.236 283.982 271.768 283.989 275.362L277.032 279.475C277.028 275.88 276.118 272.347 274.391 269.211C272.664 266.075 270.176 263.44 267.164 261.557V261.557Z" fill="#2027C9"/>
      <path d="M267.164 261.557L274.121 257.445C275.87 258.478 277.437 259.8 278.759 261.357L271.814 265.457C270.484 263.907 268.913 262.59 267.164 261.557" fill="#2027C9"/>
      <path d="M271.814 265.457L278.759 261.357C280.175 262.998 281.335 264.85 282.2 266.849L275.244 270.924C274.38 268.927 273.224 267.076 271.814 265.432" fill="#2027C9"/>
      <path d="M275.244 270.924L282.201 266.823C283.161 269.006 283.749 271.337 283.94 273.72L276.983 277.832C276.789 275.446 276.201 273.111 275.244 270.924" fill="#2027C9"/>
      <path d="M276.982 277.857L283.939 273.745C283.939 274.284 283.939 274.823 283.939 275.362L276.982 279.475C276.982 278.936 276.982 278.396 276.982 277.857Z" fill="#2027C9"/>
    </g>
    <path d="M214.643 205.096L324 270.25V264.434C324 261.677 322.324 258.474 320.256 257.279L218.387 196.45C216.311 195.255 214.643 196.523 214.643 199.281V205.096Z" fill="#4D5365"/>
    <path d="M229.194 209.25C229.613 209.008 229.614 208.222 229.194 207.495C228.774 206.769 228.094 206.376 227.674 206.618C227.254 206.861 227.254 207.646 227.674 208.373C228.093 209.1 228.774 209.492 229.194 209.25Z" fill="white"/>
    <path d="M224.619 206.606C225.039 206.364 225.039 205.578 224.62 204.851C224.2 204.125 223.52 203.732 223.1 203.974C222.68 204.217 222.68 205.002 223.1 205.729C223.519 206.456 224.2 206.848 224.619 206.606Z" fill="white"/>
    <path d="M220.613 204.533C221.035 204.291 221.037 203.502 220.617 202.772C220.197 202.042 219.515 201.647 219.094 201.889C218.672 202.132 218.67 202.92 219.09 203.65C219.509 204.38 220.191 204.775 220.613 204.533Z" fill="white"/>
    <path d="M226.513 303.514L232.085 307.029C232.191 307.083 232.308 307.111 232.427 307.111C232.545 307.111 232.662 307.083 232.768 307.029L234.61 306.059C234.818 305.951 234.846 305.776 234.675 305.668L229.105 302.154C228.999 302.1 228.882 302.072 228.763 302.072C228.644 302.072 228.527 302.1 228.421 302.154L226.577 303.122C226.372 303.231 226.343 303.401 226.513 303.514Z" fill="#D5D7E0"/>
    <path d="M269.841 330.847L271.699 332.019C271.804 332.072 271.922 332.1 272.04 332.1C272.159 332.1 272.276 332.072 272.382 332.019L274.224 331.049C274.432 330.941 274.46 330.765 274.29 330.656L272.433 329.486C272.327 329.432 272.21 329.404 272.091 329.404C271.973 329.404 271.855 329.432 271.75 329.486L269.906 330.454C269.7 330.564 269.671 330.739 269.841 330.847Z" fill="#D5D7E0"/>
    <path d="M264.893 327.723L266.751 328.895C266.857 328.948 266.974 328.976 267.092 328.976C267.211 328.976 267.328 328.948 267.434 328.895L269.278 327.925C269.484 327.817 269.512 327.641 269.342 327.532L267.485 326.362C267.379 326.308 267.262 326.28 267.143 326.28C267.025 326.28 266.907 326.308 266.802 326.362L264.959 327.33C264.75 327.439 264.722 327.615 264.893 327.723Z" fill="#D5D7E0"/>
    <path d="M259.94 324.599L261.798 325.771C261.904 325.825 262.021 325.853 262.139 325.853C262.258 325.853 262.375 325.825 262.481 325.771L264.323 324.801C264.529 324.694 264.559 324.518 264.387 324.411L262.53 323.238C262.424 323.185 262.307 323.157 262.188 323.157C262.07 323.157 261.953 323.185 261.847 323.238L260.005 324.209C259.797 324.316 259.769 324.492 259.94 324.599Z" fill="#D5D7E0"/>
    <path d="M254.986 321.475L256.843 322.647C256.949 322.701 257.066 322.729 257.185 322.729C257.304 322.729 257.421 322.701 257.526 322.647L259.369 321.677C259.576 321.57 259.605 321.394 259.435 321.287L257.577 320.114C257.472 320.061 257.354 320.033 257.236 320.033C257.117 320.033 257 320.061 256.894 320.114L255.05 321.085C254.844 321.192 254.816 321.368 254.986 321.475Z" fill="#D5D7E0"/>
    <path d="M250.038 318.352L251.894 319.524C251.999 319.577 252.117 319.605 252.235 319.605C252.354 319.605 252.471 319.577 252.577 319.524L254.421 318.553C254.627 318.446 254.655 318.27 254.485 318.163L252.626 316.991C252.52 316.937 252.403 316.909 252.284 316.909C252.166 316.909 252.049 316.937 251.943 316.991L250.101 317.961C249.895 318.068 249.866 318.244 250.038 318.352Z" fill="#D5D7E0"/>
    <path d="M245.08 315.228L246.938 316.4C247.044 316.454 247.161 316.482 247.279 316.482C247.398 316.482 247.515 316.454 247.621 316.4L249.463 315.43C249.671 315.322 249.699 315.147 249.527 315.039L247.67 313.867C247.564 313.813 247.447 313.785 247.328 313.785C247.21 313.785 247.093 313.813 246.987 313.867L245.145 314.837C244.939 314.945 244.909 315.12 245.08 315.228Z" fill="#D5D7E0"/>
    <path d="M240.132 312.104L241.99 313.276C242.096 313.33 242.213 313.358 242.331 313.358C242.45 313.358 242.567 313.33 242.673 313.276L244.515 312.306C244.723 312.199 244.751 312.023 244.581 311.915L242.724 310.743C242.618 310.69 242.501 310.662 242.382 310.662C242.264 310.662 242.146 310.69 242.041 310.743L240.197 311.714C239.991 311.821 239.963 311.997 240.132 312.104Z" fill="#D5D7E0"/>
    <path d="M235.181 308.98L237.036 310.152C237.142 310.206 237.259 310.234 237.378 310.234C237.496 310.234 237.613 310.206 237.719 310.152L239.563 309.182C239.769 309.075 239.799 308.899 239.628 308.791L237.77 307.619C237.664 307.566 237.547 307.538 237.429 307.538C237.31 307.538 237.193 307.566 237.087 307.619L235.245 308.589C235.037 308.697 235.009 308.874 235.181 308.98Z" fill="#D5D7E0"/>
    <path d="M221.33 306.241L226.901 309.756C227.007 309.81 227.124 309.838 227.243 309.838C227.362 309.838 227.479 309.81 227.585 309.756L229.427 308.786C229.634 308.676 229.663 308.501 229.491 308.393L223.921 304.879C223.815 304.825 223.698 304.797 223.58 304.797C223.461 304.797 223.344 304.825 223.238 304.879L221.394 305.849C221.188 305.958 221.16 306.134 221.33 306.241Z" fill="#D5D7E0"/>
    <path d="M259.708 330.45L261.566 331.621C261.672 331.674 261.789 331.702 261.907 331.702C262.026 331.702 262.143 331.674 262.249 331.621L264.093 330.65C264.299 330.541 264.327 330.365 264.157 330.258L262.3 329.088C262.194 329.034 262.077 329.006 261.958 329.006C261.84 329.006 261.722 329.034 261.617 329.088L259.774 330.058C259.567 330.167 259.539 330.343 259.708 330.45Z" fill="#D5D7E0"/>
    <path d="M254.757 327.326L256.614 328.497C256.72 328.55 256.837 328.578 256.956 328.578C257.074 328.578 257.191 328.55 257.297 328.497L259.14 327.526C259.345 327.417 259.375 327.241 259.204 327.134L257.346 325.964C257.241 325.91 257.124 325.882 257.005 325.882C256.886 325.882 256.769 325.91 256.663 325.964L254.821 326.934C254.613 327.043 254.585 327.219 254.757 327.326Z" fill="#D5D7E0"/>
    <path d="M249.802 324.203L251.66 325.373C251.765 325.426 251.882 325.454 252.001 325.454C252.12 325.454 252.237 325.426 252.343 325.373L254.185 324.403C254.393 324.293 254.421 324.118 254.249 324.01L252.394 322.84C252.288 322.786 252.171 322.758 252.052 322.758C251.933 322.758 251.816 322.786 251.711 322.84L249.866 323.81C249.661 323.919 249.632 324.095 249.802 324.203Z" fill="#D5D7E0"/>
    <path d="M244.853 321.079L246.71 322.251C246.816 322.305 246.933 322.333 247.052 322.333C247.171 322.333 247.288 322.305 247.393 322.251L249.237 321.281C249.443 321.172 249.472 320.996 249.302 320.889L247.444 319.718C247.339 319.665 247.221 319.637 247.103 319.637C246.984 319.637 246.867 319.665 246.761 319.718L244.919 320.689C244.711 320.796 244.683 320.972 244.853 321.079Z" fill="#D5D7E0"/>
    <path d="M239.901 317.955L241.758 319.127C241.864 319.181 241.981 319.209 242.1 319.209C242.218 319.209 242.335 319.181 242.441 319.127L244.283 318.157C244.489 318.048 244.519 317.872 244.348 317.765L242.49 316.594C242.384 316.541 242.267 316.513 242.149 316.513C242.03 316.513 241.913 316.541 241.807 316.594L239.965 317.565C239.759 317.672 239.729 317.848 239.901 317.955Z" fill="#D5D7E0"/>
    <path d="M234.949 314.831L236.806 316.004C236.912 316.057 237.029 316.085 237.148 316.085C237.266 316.085 237.383 316.057 237.489 316.004L239.331 315.033C239.539 314.924 239.567 314.748 239.398 314.641L237.54 313.471C237.434 313.417 237.317 313.389 237.199 313.389C237.08 313.389 236.963 313.417 236.857 313.471L235.013 314.441C234.807 314.548 234.779 314.726 234.949 314.831Z" fill="#D5D7E0"/>
    <path d="M229.997 311.706L231.855 312.878C231.961 312.931 232.078 312.959 232.196 312.959C232.315 312.959 232.432 312.931 232.538 312.878L234.382 311.907C234.588 311.798 234.616 311.622 234.446 311.515L232.589 310.345C232.483 310.291 232.366 310.263 232.247 310.263C232.129 310.263 232.012 310.291 231.906 310.345L230.064 311.315C229.856 311.424 229.828 311.6 229.997 311.706Z" fill="#D5D7E0"/>
    <path d="M216.151 308.967L221.723 312.482C221.829 312.535 221.946 312.563 222.065 312.563C222.184 312.563 222.301 312.535 222.406 312.482L224.249 311.513C224.454 311.404 224.485 311.228 224.313 311.121L218.743 307.606C218.637 307.552 218.519 307.524 218.4 307.524C218.281 307.524 218.164 307.552 218.058 307.606L216.216 308.577C216.008 308.686 215.98 308.86 216.151 308.967Z" fill="#D5D7E0"/>
    <path d="M249.577 330.054L251.434 331.224C251.54 331.278 251.657 331.306 251.776 331.306C251.895 331.306 252.012 331.278 252.118 331.224L253.96 330.256C254.166 330.146 254.196 329.971 254.024 329.863L252.167 328.691C252.061 328.637 251.944 328.609 251.825 328.609C251.706 328.609 251.589 328.637 251.483 328.691L249.641 329.661C249.434 329.769 249.415 329.944 249.577 330.054Z" fill="#D5D7E0"/>
    <path d="M244.623 326.93L246.481 328.101C246.587 328.154 246.704 328.182 246.822 328.182C246.941 328.182 247.058 328.154 247.164 328.101L249.006 327.132C249.214 327.023 249.242 326.847 249.07 326.74L247.215 325.568C247.109 325.514 246.991 325.485 246.872 325.485C246.753 325.485 246.636 325.514 246.53 325.568L244.688 326.538C244.482 326.645 244.452 326.821 244.623 326.93Z" fill="#D5D7E0"/>
    <path d="M239.669 323.806L241.527 324.977C241.632 325.03 241.75 325.058 241.868 325.058C241.987 325.058 242.104 325.03 242.21 324.977L244.054 324.008C244.26 323.899 244.288 323.723 244.118 323.616L242.261 322.444C242.155 322.39 242.038 322.362 241.919 322.362C241.8 322.362 241.683 322.39 241.578 322.444L239.735 323.414C239.528 323.521 239.499 323.697 239.669 323.806Z" fill="#D5D7E0"/>
    <path d="M234.724 320.682L236.581 321.853C236.687 321.906 236.804 321.934 236.923 321.934C237.041 321.934 237.158 321.906 237.264 321.853L239.106 320.884C239.312 320.775 239.342 320.599 239.17 320.492L237.313 319.32C237.207 319.266 237.09 319.238 236.972 319.238C236.853 319.238 236.736 319.266 236.63 319.32L234.788 320.29C234.58 320.397 234.552 320.577 234.724 320.682Z" fill="#D5D7E0"/>
    <path d="M229.77 317.557L231.627 318.727C231.733 318.781 231.85 318.809 231.969 318.809C232.087 318.809 232.205 318.781 232.31 318.727L234.153 317.759C234.36 317.65 234.389 317.474 234.217 317.366L232.361 316.194C232.256 316.141 232.138 316.113 232.02 316.113C231.901 316.113 231.784 316.141 231.678 316.194L229.834 317.164C229.628 317.274 229.598 317.449 229.77 317.557Z" fill="#D5D7E0"/>
    <path d="M224.816 314.435L226.673 315.605C226.779 315.659 226.896 315.687 227.015 315.687C227.133 315.687 227.25 315.659 227.356 315.605L229.2 314.637C229.406 314.528 229.434 314.352 229.265 314.245L227.407 313.072C227.301 313.019 227.184 312.991 227.066 312.991C226.947 312.991 226.83 313.019 226.724 313.072L224.882 314.043C224.674 314.16 224.646 314.326 224.816 314.435Z" fill="#D5D7E0"/>
    <path d="M205.787 314.422L211.357 317.935C211.464 317.988 211.581 318.016 211.7 318.016C211.819 318.016 211.936 317.988 212.043 317.935L213.885 316.965C214.09 316.855 214.121 316.68 213.949 316.572L208.377 313.058C208.271 313.004 208.154 312.976 208.035 312.976C207.917 312.976 207.8 313.004 207.694 313.058L205.852 314.028C205.646 314.139 205.625 314.315 205.787 314.422Z" fill="#D5D7E0"/>
    <path d="M258.504 345.052L256.562 346.075C256.462 346.12 256.352 346.141 256.242 346.136C256.132 346.132 256.024 346.102 255.928 346.048L219.406 323.012C219.365 323 219.33 322.975 219.305 322.941C219.28 322.906 219.268 322.865 219.27 322.823C219.271 322.78 219.287 322.74 219.315 322.708C219.342 322.676 219.379 322.654 219.421 322.645L221.363 321.622C221.463 321.577 221.572 321.555 221.682 321.56C221.792 321.565 221.899 321.595 221.995 321.649L258.518 344.676C258.564 344.682 258.607 344.705 258.637 344.741C258.668 344.777 258.684 344.823 258.682 344.87C258.68 344.917 258.661 344.961 258.628 344.995C258.595 345.029 258.551 345.049 258.504 345.052Z" fill="#D5D7E0"/>
    <path d="M214.454 319.888L216.311 321.06C216.417 321.114 216.534 321.142 216.653 321.142C216.772 321.142 216.889 321.114 216.994 321.06L218.838 320.09C219.044 319.98 219.073 319.805 218.903 319.697L217.045 318.527C216.94 318.473 216.822 318.445 216.704 318.445C216.585 318.445 216.468 318.473 216.362 318.527L214.518 319.497C214.309 319.605 214.284 319.78 214.454 319.888Z" fill="#D5D7E0"/>
    <path d="M210.968 311.694L221.49 318.333C221.596 318.386 221.713 318.414 221.832 318.414C221.951 318.414 222.068 318.386 222.174 318.333L224.018 317.363C224.223 317.255 224.252 317.079 224.082 316.972L213.552 310.332C213.446 310.278 213.329 310.25 213.21 310.25C213.091 310.25 212.974 310.278 212.868 310.332L211.026 311.3C210.826 311.411 210.796 311.587 210.968 311.694Z" fill="#D5D7E0"/>
    <path d="M239.444 329.656L241.301 330.828C241.407 330.882 241.524 330.91 241.643 330.91C241.761 330.91 241.878 330.882 241.984 330.828L243.826 329.858C244.034 329.75 244.062 329.575 243.891 329.465L242.033 328.295C241.927 328.241 241.81 328.213 241.692 328.213C241.573 328.213 241.456 328.241 241.35 328.295L239.508 329.263C239.302 329.373 239.272 329.548 239.444 329.656Z" fill="#D5D7E0"/>
    <path d="M234.488 326.532L236.346 327.704C236.451 327.758 236.568 327.786 236.687 327.786C236.806 327.786 236.923 327.758 237.029 327.704L238.873 326.734C239.079 326.626 239.107 326.451 238.937 326.341L237.08 325.171C236.974 325.117 236.857 325.089 236.738 325.089C236.619 325.089 236.502 325.117 236.396 325.171L234.552 326.141C234.347 326.249 234.313 326.428 234.488 326.532Z" fill="#D5D7E0"/>
    <path d="M229.54 323.408L231.397 324.58C231.503 324.634 231.62 324.662 231.739 324.662C231.858 324.662 231.975 324.634 232.081 324.58L233.923 323.61C234.128 323.502 234.159 323.327 233.987 323.219L232.13 322.047C232.024 321.993 231.907 321.965 231.788 321.965C231.669 321.965 231.552 321.993 231.446 322.047L229.604 323.017C229.397 323.125 229.368 323.3 229.54 323.408Z" fill="#D5D7E0"/>
    <path d="M224.586 320.284L226.444 321.456C226.549 321.51 226.666 321.538 226.785 321.538C226.904 321.538 227.021 321.51 227.127 321.456L228.969 320.486C229.177 320.379 229.205 320.203 229.033 320.096L227.178 318.923C227.072 318.869 226.954 318.841 226.835 318.841C226.716 318.841 226.599 318.869 226.493 318.923L224.65 319.894C224.445 320.011 224.415 320.177 224.586 320.284Z" fill="#D5D7E0"/>
    <path d="M194.704 340.22C194.78 340.291 194.862 340.354 194.95 340.409L223.639 358.507C224.519 359.074 226.093 359.062 227.163 358.507L242.487 350.44C242.676 350.343 242.851 350.221 243.006 350.076C243.573 349.544 243.531 348.868 242.818 348.425L214.128 330.318C213.249 329.767 211.674 329.769 210.604 330.331L195.28 338.398C194.321 338.885 194.112 339.667 194.704 340.22Z" fill="#BEC1D0"/>
    <path d="M171.165 289.714L169.939 291.815L169.769 294.11L171.908 297.856C172.078 298.114 172.056 298.485 171.859 298.677C170.454 300.047 169.21 300.176 167.569 299.001L164.201 294.115L164.511 292.418L165.788 290.739L169.338 288.476L171.165 289.714Z" fill="white"/>
    <path d="M181.091 288.234L180.642 290.205L183.975 293.361C184.046 293.428 184.1 293.512 184.131 293.605C184.163 293.698 184.171 293.797 184.155 293.894C184.139 293.991 184.1 294.082 184.041 294.16C183.982 294.239 183.905 294.301 183.816 294.343V294.343C181.827 295.27 179.599 294.685 177.686 293.607L175.071 292.169C174.935 292.092 174.816 291.989 174.72 291.866C174.624 291.743 174.553 291.602 174.512 291.452C174.471 291.301 174.46 291.144 174.481 290.989C174.501 290.834 174.551 290.685 174.63 290.55L176.092 288.234H181.091Z" fill="white"/>
    <path d="M169.615 300C168.934 300 168.228 299.717 167.451 299.164C167.432 299.15 167.416 299.134 167.403 299.114L164.035 294.23C164.005 294.186 163.994 294.132 164.003 294.08L164.314 292.382C164.32 292.351 164.333 292.322 164.351 292.297L165.628 290.619C165.642 290.6 165.66 290.583 165.68 290.57L169.229 288.307C169.262 288.286 169.3 288.275 169.339 288.275C169.378 288.275 169.416 288.286 169.449 288.307L171.277 289.544C171.319 289.573 171.349 289.616 171.36 289.666C171.371 289.716 171.363 289.768 171.337 289.811L170.134 291.873L169.972 294.06L172.078 297.747C172.299 298.088 172.267 298.557 171.997 298.816C171.188 299.609 170.42 300 169.615 300ZM167.712 298.858C169.242 299.943 170.368 299.851 171.718 298.534C171.846 298.408 171.857 298.143 171.74 297.968L171.733 297.956L169.593 294.211C169.574 294.176 169.565 294.136 169.568 294.097L169.739 291.802C169.741 291.772 169.75 291.743 169.765 291.716L170.897 289.776L169.333 288.718L165.924 290.887L164.698 292.499L164.415 294.069L167.712 298.858Z" fill="white"/>
    <path d="M181.68 295.005C180.15 295.005 178.689 294.403 177.587 293.779L174.973 292.341C174.813 292.252 174.674 292.131 174.561 291.987C174.449 291.843 174.366 291.678 174.318 291.502C174.27 291.325 174.257 291.141 174.281 290.96C174.305 290.779 174.364 290.604 174.456 290.446L175.919 288.124C175.937 288.095 175.962 288.071 175.992 288.055C176.022 288.038 176.055 288.03 176.089 288.03H181.087C181.117 288.03 181.147 288.036 181.174 288.049C181.201 288.062 181.225 288.081 181.244 288.104C181.262 288.128 181.276 288.155 181.282 288.185C181.289 288.214 181.289 288.245 181.283 288.274L180.858 290.134L184.11 293.212C184.205 293.302 184.276 293.413 184.318 293.537C184.359 293.661 184.37 293.793 184.349 293.922C184.328 294.051 184.276 294.173 184.197 294.277C184.118 294.381 184.015 294.465 183.897 294.52C183.202 294.843 182.445 295.009 181.68 295.005ZM176.2 288.433L174.798 290.656C174.734 290.768 174.693 290.892 174.677 291.02C174.661 291.148 174.67 291.278 174.705 291.402C174.739 291.527 174.798 291.643 174.877 291.744C174.957 291.846 175.055 291.931 175.168 291.994L177.781 293.432C179.332 294.307 181.622 295.143 183.728 294.161C183.787 294.134 183.839 294.092 183.878 294.04C183.918 293.988 183.944 293.927 183.954 293.862C183.965 293.797 183.959 293.731 183.939 293.669C183.918 293.607 183.882 293.551 183.834 293.506L180.501 290.35C180.476 290.326 180.457 290.296 180.447 290.263C180.437 290.23 180.436 290.195 180.443 290.161L180.836 288.434L176.2 288.433Z" fill="white"/>
    <path d="M182.127 228.435L186.088 240.921L186.175 241.194C186.315 241.637 186.604 242.018 186.991 242.274L198.819 250.068C199.506 250.52 200.448 250.383 200.926 249.713C201.144 249.409 201.242 249.036 201.2 248.664C201.158 248.293 200.98 247.95 200.7 247.702L190.987 239.609L188.189 226.886C187.812 225.17 186.09 224.035 184.383 224.444C183.585 224.636 182.895 225.133 182.46 225.828C182.025 226.523 181.879 227.361 182.055 228.163C182.071 228.254 182.097 228.349 182.127 228.435Z" fill="#7A7E8C"/>
    <path d="M175.631 288.291L177.342 288.26L181.726 288.184L185.24 272.091L186.304 252.552L178.115 251.569L176.38 251.362L178.137 271.387C177.398 273.852 176.821 276.363 176.411 278.903C175.997 281.441 175.752 284.005 175.679 286.576L175.631 288.291Z" fill="#7A7E8C"/>
    <path d="M164.883 291.148L170.959 291.664L171.02 291.476L176.09 276.01L179.138 256.677L171.648 254.993L169.385 254.484L169.097 274.585C167.124 279.343 165.783 284.338 165.108 289.445L164.883 291.148Z" fill="#4D5365"/>
    <path d="M184.129 262.917L185.747 262.59L186.918 260.392L184.035 259.992L183.083 260.322L181.74 261.919L184.129 262.917Z" fill="white"/>
    <path d="M182.721 223.545L182.215 223.628L179.232 222.481L172.348 228.302C172.001 228.38 167.498 231.475 166.136 234.654C165.922 235.163 165.86 235.722 165.956 236.265C166.312 238.38 167.406 244.867 168.203 249.568L168.056 258.145C168.122 258.533 168.265 258.904 168.478 259.235C168.691 259.566 168.968 259.851 169.293 260.072C169.618 260.294 169.985 260.447 170.371 260.524C170.757 260.6 171.155 260.598 171.54 260.517L184.628 257.764C185.319 257.619 185.934 257.229 186.359 256.666C186.785 256.103 186.992 255.405 186.943 254.701L186.136 243.071C186.005 241.185 186.185 240.099 186.46 238.922C186.931 236.886 188.166 235.85 188.02 233.765L188.141 232.784C188.077 231.857 188.587 230.11 188.604 229.18C188.607 228.688 188.568 228.198 188.486 227.713C188.382 227.06 188.15 226.435 187.804 225.872C187.458 225.309 187.004 224.82 186.469 224.433C185.933 224.046 185.326 223.768 184.683 223.616C184.04 223.463 183.374 223.44 182.721 223.545Z" fill="#4D5365"/>
    <path d="M183.126 217.118L182.997 221.012L182.107 225.13C182.051 225.389 181.911 225.623 181.708 225.796C181.506 225.968 181.253 226.07 180.988 226.085L179.546 226.163C179.621 226.319 179.665 226.488 179.675 226.661C179.684 226.834 179.659 227.008 179.602 227.171C179.544 227.334 179.454 227.484 179.337 227.613C179.221 227.741 179.08 227.845 178.923 227.918L178.846 227.954C178.678 228.032 178.495 228.074 178.309 228.077C178.123 228.079 177.939 228.042 177.768 227.968L177.449 227.83L174.317 226.476L174.435 224.985L173.734 223.23L172.311 217.447C172.163 216.844 172.211 216.21 172.448 215.637C172.594 215.278 172.788 214.941 173.024 214.633C173.397 214.142 173.869 213.733 174.408 213.433C174.948 213.132 175.544 212.947 176.158 212.888L178.094 212.699C178.234 212.686 178.375 212.699 178.51 212.738L180.346 213.275C181.17 213.515 181.891 214.024 182.394 214.72C182.898 215.416 183.155 216.26 183.126 217.118V217.118Z" fill="white"/>
    <path d="M183.097 217.999C183.097 217.999 182.879 217.169 182.459 217.137C182.038 217.105 180.908 217.654 179.388 217.428C177.869 217.201 177.349 217.622 177.031 218.365C176.712 219.108 176.309 221.783 175.501 222.3C174.693 222.818 173.658 222.849 173.255 222.3C172.851 221.752 170.998 217.46 172.029 215.715C173.059 213.971 173.559 212.214 175.854 212.019C178.148 211.825 182.228 213.142 182.832 213.668C183.398 214.154 183.982 217.094 183.681 217.708C183.38 218.322 183.097 217.999 183.097 217.999Z" fill="#4D5365"/>
    <path d="M175.39 226.926C175.72 227.138 176.07 227.318 176.435 227.461C177.271 227.788 178.044 227.744 178.773 227.386C178.996 227.275 179.178 227.097 179.295 226.878C179.412 226.658 179.458 226.407 179.426 226.16V226.16L180.274 226.113L180.355 226.49C180.436 226.866 180.418 227.257 180.301 227.623C180.184 227.989 179.973 228.318 179.69 228.577V228.577C179.521 228.733 179.321 228.851 179.103 228.923C178.885 228.995 178.654 229.02 178.426 228.995C177.661 228.91 176.571 228.694 175.896 228.552C175.348 228.445 174.842 228.187 174.433 227.807C174.223 227.606 174.063 227.383 174.094 227.186L174.252 225.719L175.39 226.926Z" fill="#7A7E8C"/>
    <path d="M166.19 238.62L169.114 251.389L169.178 251.672C169.281 252.125 169.537 252.528 169.903 252.815L181.085 261.585C181.381 261.854 181.772 261.995 182.172 261.975C182.572 261.956 182.947 261.779 183.216 261.483C183.486 261.186 183.626 260.795 183.607 260.396C183.588 259.996 183.41 259.62 183.114 259.351L173.306 249.061L174.095 250.484L172.346 237.503C172.235 236.68 171.801 235.935 171.141 235.431C170.48 234.927 169.646 234.707 168.823 234.818C168 234.929 167.255 235.362 166.751 236.023C166.247 236.683 166.027 237.517 166.137 238.34C166.153 238.431 166.17 238.53 166.19 238.62Z" fill="#7A7E8C"/>
    <path d="M175.546 253.556C175.672 253.399 175.834 253.275 176.018 253.194L191.75 246.318C192.494 245.993 193.311 245.869 194.118 245.958C194.926 246.048 195.696 246.348 196.351 246.828L203.459 252.045L204.379 251.946L204.346 252.241C204.332 252.369 204.284 252.492 204.208 252.595C204.132 252.699 204.029 252.781 203.911 252.833L184.34 261.387C184.269 261.418 184.19 261.43 184.113 261.422C184.035 261.413 183.962 261.384 183.899 261.338L175.775 255.376C175.596 255.246 175.455 255.072 175.365 254.869C175.276 254.667 175.241 254.445 175.265 254.226L175.344 253.498L175.546 253.556Z" fill="#EBEDF0"/>
    <path d="M184.187 260.77L204.382 251.943L196.432 246.11C195.777 245.629 195.008 245.329 194.2 245.239C193.393 245.149 192.576 245.273 191.832 245.599L176.1 252.475C175.896 252.564 175.719 252.706 175.587 252.885C175.455 253.064 175.372 253.275 175.348 253.496C175.323 253.718 175.357 253.941 175.447 254.145C175.536 254.349 175.678 254.526 175.857 254.657L184.187 260.77Z" fill="#4D5365"/>
    <path d="M183.082 257.173L198.76 250.283L193.769 246.62L178.092 253.509L183.082 257.173Z" fill="#7A7E8C"/>
    <path d="M184.84 244.536L183.143 260.006L184.189 260.771L185.887 245.305C185.936 244.858 186.08 244.426 186.308 244.039L185.265 243.269C185.035 243.657 184.89 244.088 184.84 244.536Z" fill="#EBEDF0"/>
    <path d="M185.266 243.264L186.309 244.034C186.648 243.458 187.161 243.003 187.773 242.735L204.581 235.392C204.754 235.315 204.945 235.286 205.133 235.307C205.321 235.329 205.5 235.4 205.652 235.513L204.604 234.748C204.452 234.635 204.273 234.564 204.085 234.543C203.897 234.522 203.707 234.551 203.533 234.627L186.727 241.971C186.116 242.238 185.605 242.69 185.266 243.264Z" fill="white"/>
    <path d="M185.888 245.3L184.328 259.487L203.335 251.181L205.015 235.914L205.02 235.931L205.654 235.515C205.503 235.402 205.324 235.331 205.136 235.309C204.947 235.288 204.757 235.317 204.584 235.394L187.776 242.737C187.264 242.961 186.82 243.316 186.489 243.767C186.158 244.217 185.951 244.747 185.89 245.302L185.888 245.3Z" fill="#4D5365"/>
    <path d="M185.887 245.3L184.189 260.766L204.383 251.946L206.08 236.495C206.102 236.309 206.074 236.12 205.999 235.948C205.924 235.776 205.805 235.627 205.654 235.515V235.515C205.503 235.402 205.324 235.331 205.135 235.309C204.947 235.288 204.757 235.317 204.584 235.394L187.776 242.737C187.264 242.961 186.82 243.316 186.489 243.767C186.158 244.217 185.951 244.747 185.89 245.302L185.887 245.3Z" fill="#4D5365"/>
  </g>
  <defs>
    <clipPath id="clip0_4250:7974">
      <rect width="42" height="57" fill="white" transform="translate(242 247)"/>
    </clipPath>
  </defs>
</svg>
